<svg width="22" height="22" viewBox="0 0 22 22" fill="none" xmlns="http://www.w3.org/2000/svg">
<path fill-rule="evenodd" clip-rule="evenodd" d="M5.72706 0.333336C5.84777 0.333336 5.96356 0.375845 6.0491 0.451558L8.34436 2.48221C9.05299 2.32673 9.78873 2.23206 10.5441 2.20482L10.9996 2.19663C11.0876 2.19663 11.1753 2.19754 11.2628 2.19936C11.3036 2.19927 11.3443 2.2006 11.3849 2.2023L11.4826 2.20585C11.9507 2.23286 12.4032 2.31062 12.833 2.43299L15.0683 0.564547C15.3437 0.334298 15.7769 0.346111 16.036 0.59093C16.1602 0.708322 16.2269 0.864714 16.2216 1.0258L16.0946 4.86981C16.4996 5.55672 16.7286 6.33783 16.7286 7.16628C16.7286 9.91095 14.215 12.1359 11.1142 12.1359C11.0758 12.1359 11.0375 12.1356 10.9992 12.1349L10.9996 20.6554C16.4418 20.6554 20.8535 16.7503 20.8535 11.9331L20.8651 11.9323C20.9185 11.7012 21.1495 11.5274 21.4264 11.5274C21.7018 11.5274 21.9318 11.6994 21.9868 11.9287L21.9992 11.9289L21.999 11.9576L21.998 12.0047L21.9993 11.9331C21.9993 17.3104 17.0746 21.6696 10.9996 21.6696C4.9247 21.6696 0 17.3104 0 11.9331C0 8.41363 2.10962 5.33031 5.27061 3.61987L5.27066 0.739023C5.27066 0.514969 5.47499 0.333336 5.72706 0.333336ZM5.273 7.21357L5.27128 7.29124L5.27066 7.36913C5.27066 10.2354 7.80517 12.5778 10.9987 12.736L10.9996 12.1359C7.83561 12.1359 5.27066 9.86554 5.27066 7.06486L5.273 7.21357Z" fill="black"/>
</svg>