
<svg width="20" height="18" viewBox="0 0 20 18" fill="none" xmlns="http://www.w3.org/2000/svg">
<path d="M14.0808 0C14.7375 0 15.3444 0.354012 15.6728 0.928711L19.7537 8.07129C20.0821 8.64597 20.0821 9.35403 19.7537 9.92871L15.6728 17.0713C15.3444 17.646 14.7376 18 14.0809 18H5.91915C5.26243 18 4.6556 17.646 4.32723 17.0713L0.2463 9.92871C-0.0821 9.35403 -0.0821 8.64597 0.2463 8.07129L4.32711 0.928711C4.65547 0.353996 5.2623 0 5.91903 0H14.0808ZM14.0808 1.62527H5.91903C5.83719 1.62527 5.76085 1.66976 5.71993 1.74142L1.63918 8.88385C1.59826 8.95572 1.59826 9.04416 1.63918 9.11603L5.72006 16.2586C5.76121 16.3303 5.837 16.3746 5.91903 16.3746H14.0808C14.1626 16.3746 14.2389 16.3301 14.2799 16.2585L18.3606 9.11603C18.4015 9.04416 18.4015 8.95572 18.3606 8.88385L14.2797 1.7413C14.2388 1.66975 14.1626 1.62527 14.0808 1.62527ZM9.9999 5.2851C12.0303 5.2851 13.6762 6.94835 13.6762 9C13.6762 11.0516 12.0302 12.7149 9.9999 12.7149C7.96958 12.7149 6.32363 11.0516 6.32363 9C6.32363 6.94835 7.96946 5.2851 9.9999 5.2851ZM9.9999 6.91037C8.85968 6.91037 7.93197 7.84781 7.93197 9C7.93197 10.1522 8.85968 11.0896 9.9999 11.0896C11.1401 11.0896 12.0678 10.1522 12.0678 9C12.0678 7.84781 11.1401 6.91037 9.9999 6.91037Z" fill="black"/>
</svg>
